PathFileType  4	(X/Y/Z) C:\Users\antoi\Documents\MyRepositories\mobilecap\ResultsAnalysis
DataRate	CameraRate	NumFrames	NumMarkers	Units	OrigDataRate	OrigDataStartFrame	OrigNumFrames
100.0	100.0	4	51	mm	100.0	1	265
Frame#	Time	r_knee			r_shank_antsup			r_ankle			r_calc			r_5meta			r_toe			L_knee			L_shank_antsup			L_ankle			L_calc			L_5meta			L_toe			r_sh2			r_sh3			r_sh4			L_sh2			L_sh3			r_thigh1			r_thigh2			r_thigh3			r_thigh4			r_thigh5			L_thigh1			L_thigh2			L_thigh3			L_thigh4			r.ASIS			r.PSIS			L.ASIS			L.PSIS			C7			R_Shoulder			L_Shoulder			R_Sternum			L_Sternum			R_humerus			R_elbow_med			R_elbow_lat			R_forearm			R_wrist_radius			R_wrist_ulna			L_humerus			L_elbow_med			L_elbow_lat			L_forearm			L_wrist_radius			L_wrist_ulna			R_HJC			L_HJC			R_HJC_reg			L_HJC_reg			
		X1	Y1	Z1	X2	Y2	Z2	X3	Y3	Z3	X4	Y4	Z4	X5	Y5	Z5	X6	Y6	Z6	X7	Y7	Z7	X8	Y8	Z8	X9	Y9	Z9	X10	Y10	Z10	X11	Y11	Z11	X12	Y12	Z12	X13	Y13	Z13	X14	Y14	Z14	X15	Y15	Z15	X16	Y16	Z16	X17	Y17	Z17	X18	Y18	Z18	X19	Y19	Z19	X20	Y20	Z20	X21	Y21	Z21	X22	Y22	Z22	X23	Y23	Z23	X24	Y24	Z24	X25	Y25	Z25	X26	Y26	Z26	X27	Y27	Z27	X28	Y28	Z28	X29	Y29	Z29	X30	Y30	Z30	X31	Y31	Z31	X32	Y32	Z32	X33	Y33	Z33	X34	Y34	Z34	X35	Y35	Z35	X36	Y36	Z36	X37	Y37	Z37	X38	Y38	Z38	X39	Y39	Z39	X40	Y40	Z40	X41	Y41	Z41	X42	Y42	Z42	X43	Y43	Z43	X44	Y44	Z44	X45	Y45	Z45	X46	Y46	Z46	X47	Y47	Z47	X48	Y48	Z48	X49	Y49	Z49	X50	Y50	Z50	X51	Y51	Z51	

1	0.00000000	-1131.10919	857.47416	-416.72885	-1109.58087	730.49008	-427.36879	-1226.70754	406.79169	-420.99167	-1296.00503	373.35026	-462.59551	-1092.14538	344.40152	-383.38477	-1059.00831	367.05236	-459.46513	-1168.87348	846.57304	-745.37119	-1133.87425	736.50074	-731.12771	-1250.27893	404.11985	-727.46644	-1311.76916	374.66745	-676.54507	-1109.51464	344.23198	-759.91278	-1075.46655	367.33744	-691.65578	-1121.58735	616.21721	-447.53399	-1167.90802	726.57470	-374.86528	-1170.12668	609.56963	-377.80148	-1215.47749	745.42895	-770.40841	-1207.23280	624.46625	-783.22783	-1021.34324	1085.44383	-440.83128	-1031.10094	975.23056	-454.25999	-1057.70188	947.26969	-398.92309	-1099.89084	1081.22555	-358.83845	-1107.52431	963.28614	-381.70911	-1072.99869	1099.76164	-768.42176	-1074.68117	960.33983	-755.74388	-1185.12905	1093.56269	-799.62538	-1185.42041	955.47990	-774.01969	-1046.88890	1358.06159	-439.91159	-1258.22309	1402.85592	-513.36929	-1055.96570	1347.92438	-707.77653	-1249.45956	1388.34870	-622.95828	-1216.79428	1897.70354	-578.19077	-1139.87692	1822.01748	-391.25903	-1138.46603	1839.10032	-760.20766	-1077.35039	1813.34516	-552.72896	-1081.80387	1811.99198	-599.64127	-1129.18874	1648.83804	-321.23227	-1232.78821	1432.61651	-352.58159	-1197.13848	1454.73011	-282.62802	-1093.03740	1313.30871	-280.97221	-1052.15940	1197.16921	-278.64394	-1079.39967	1185.66593	-249.57942	-1137.38486	1662.61012	-839.53172	-1239.44854	1459.57233	-804.10376	-1204.94791	1472.67448	-876.29545	-1104.00524	1338.12352	-853.78372	-1067.49322	1226.01169	-873.56257	-1099.48555	1218.50020	-906.47245	-1132.77766	1281.32114	-469.67856	-1136.89948	1260.59462	-682.02150	-1138.71011	1291.16966	-475.69129	-1124.72074	1268.01151	-650.63027	
2	0.01000000	-1130.78021	857.07163	-416.91701	-1109.31049	730.12817	-427.46776	-1226.78524	406.63455	-420.95964	-1296.05411	373.24445	-462.54327	-1092.17872	344.43076	-383.41800	-1059.06549	367.08987	-459.48615	-1168.75719	846.56822	-745.40293	-1133.73857	736.38951	-731.07355	-1250.36927	404.06236	-727.48634	-1311.90160	374.83021	-676.84470	-1109.57334	344.30638	-759.89775	-1075.59944	367.49951	-691.58396	-1121.41365	615.99235	-447.52972	-1167.35537	726.39732	-374.86505	-1170.01865	609.25794	-377.81882	-1215.38849	745.42608	-770.49339	-1207.22739	624.46197	-783.22447	-1021.26404	1085.40307	-440.92679	-1031.07171	975.18661	-454.38978	-1057.51466	947.13230	-399.06307	-1100.11557	1080.93795	-358.51107	-1107.37332	963.07400	-381.83430	-1072.99015	1099.72800	-768.36630	-1074.69907	960.24739	-755.64312	-1185.05822	1093.48233	-799.88110	-1185.38101	955.42010	-774.00710	-1047.00739	1357.66241	-439.88674	-1258.20816	1402.87571	-513.47140	-1055.90792	1347.70633	-707.85665	-1250.71403	1389.80743	-622.73183	-1215.89193	1897.76025	-578.21702	-1139.16757	1822.14432	-390.69756	-1137.80710	1839.11606	-760.15015	-1076.44850	1813.29183	-552.64779	-1081.13684	1811.93655	-599.65604	-1128.72780	1648.79067	-320.98309	-1232.57237	1432.80405	-352.49523	-1197.09410	1454.87072	-282.43983	-1093.13400	1313.36263	-280.74981	-1052.40093	1197.21807	-278.10791	-1079.73579	1185.73903	-249.11913	-1136.99923	1662.72334	-839.70696	-1239.32252	1459.67963	-803.75462	-1204.86642	1472.78547	-876.21483	-1104.05342	1338.10130	-853.76327	-1067.72556	1225.94544	-873.69807	-1099.75559	1218.33398	-906.16278	-1133.48381	1281.23346	-469.86628	-1137.76700	1260.97816	-682.25136	-1137.85384	1289.67801	-475.51746	-1125.82485	1268.70023	-650.93367	
3	0.02000000	-1130.40154	856.84175	-416.94268	-1109.05292	729.78715	-427.55766	-1226.87611	406.43219	-420.97017	-1296.13207	373.18177	-462.52528	-1092.22974	344.40262	-383.44009	-1059.16707	367.08099	-459.47382	-1168.55071	846.58965	-745.47748	-1133.52433	736.21770	-730.97187	-1250.44902	404.00734	-727.50131	-1311.96784	375.09847	-677.30957	-1109.64288	344.35626	-759.80813	-1075.71179	367.66633	-691.54502	-1121.23267	615.64175	-447.58556	-1167.13187	726.07510	-374.83256	-1169.88266	608.90150	-377.99597	-1215.20759	745.37859	-770.54040	-1207.18743	624.43443	-783.21042	-1021.15813	1085.35360	-441.01966	-1030.98893	975.05018	-454.61900	-1057.31780	947.04039	-399.07315	-1100.16315	1080.70662	-358.41823	-1107.12313	962.84804	-381.98404	-1072.97966	1099.72062	-768.33181	-1074.64190	960.16957	-755.51012	-1184.97820	1093.37551	-799.95511	-1185.27103	955.29632	-773.91857	-1047.11213	1357.26909	-439.82791	-1258.19656	1402.90113	-513.48819	-1055.90486	1347.47315	-707.86485	-1251.89833	1391.21368	-622.51390	-1214.98875	1897.81790	-578.04298	-1138.34519	1822.18969	-390.45182	-1136.99148	1839.13367	-760.07885	-1075.62799	1813.20282	-552.72754	-1080.29324	1811.93064	-599.45442	-1128.24849	1648.83383	-320.59887	-1232.51780	1433.02037	-352.23600	-1197.05516	1455.08664	-282.17248	-1093.30502	1313.36258	-280.47430	-1052.68925	1197.18483	-277.58476	-1080.12160	1185.77276	-248.55697	-1136.53194	1662.70285	-839.65013	-1239.16191	1459.82865	-803.58850	-1204.77405	1472.90216	-876.14325	-1104.09636	1338.07501	-853.77724	-1067.96062	1225.84837	-873.72757	-1100.12292	1218.05621	-905.60995	-1134.17395	1281.15105	-469.99448	-1138.62607	1261.33283	-682.41742	-1137.04318	1288.20714	-475.34264	-1126.88575	1269.35898	-651.16163	
4	0.03000000	-1129.96301	856.68126	-416.97530	-1108.73456	729.40313	-427.57745	-1226.94905	406.23719	-420.96973	-1296.21361	373.13370	-462.50401	-1092.29577	344.34290	-383.42535	-1059.25254	367.08567	-459.45342	-1168.21546	846.62577	-745.62179	-1133.27482	736.03980	-730.88854	-1250.51143	403.94868	-727.51362	-1312.02693	375.25190	-677.59131	-1109.71490	344.39352	-759.67734	-1075.78741	367.80632	-691.50376	-1121.05608	615.22784	-447.72434	-1166.92301	725.68047	-374.87688	-1169.72015	608.51287	-378.26285	-1214.91162	745.21683	-770.43391	-1207.05972	624.40234	-783.22159	-1021.05168	1085.31746	-441.08220	-1030.84357	974.85906	-454.83724	-1057.09572	946.95536	-399.06855	-1100.11995	1080.54206	-358.42066	-1106.84974	962.57467	-382.10635	-1072.95218	1099.70939	-768.32460	-1074.48631	960.09685	-755.30486	-1184.87124	1093.22036	-799.86218	-1185.03065	955.07853	-773.83400	-1047.18423	1356.92142	-439.76994	-1258.17046	1402.98708	-513.44135	-1055.96324	1347.21784	-707.71158	-1252.98614	1392.54721	-622.30771	-1213.99392	1897.87217	-577.81414	-1137.44977	1822.14609	-390.44144	-1136.05856	1839.13853	-759.98811	-1074.76406	1813.10614	-552.82706	-1079.27504	1811.97254	-599.09651	-1127.76476	1648.91218	-320.26901	-1232.57259	1433.26294	-351.85619	-1197.01128	1455.34905	-281.84888	-1093.44500	1313.37856	-280.07415	-1053.02168	1197.12995	-277.11867	-1080.52178	1185.81106	-247.99759	-1136.01189	1662.61968	-839.44195	-1238.94816	1460.02857	-803.57675	-1204.64825	1473.02255	-876.09188	-1104.13854	1338.04346	-853.81260	-1068.20950	1225.76219	-873.70532	-1100.47899	1217.88378	-905.28525	-1134.83760	1281.11985	-470.02833	-1139.46127	1261.64401	-682.47933	-1136.28321	1286.89145	-475.14970	-1127.89895	1270.00826	-651.19665	
